# xmcd
# Track frame offsets:
# 150
# 14908
# 30484
# 43855
# 53739
# 64347
# 77744
# 86861
# 100044
# 113882
#
# Disc length: 1653 seconds
# Revision: 0
# Processed by: cddbd v1.4PL0 Copyright (c) Steve Scherf et al.
# Submitted via: VisiTrax 2.9.5.181 - For more info visit www.synapsa.com
#
DISCID=8306730a
DTITLE=The Yellow And Blues Band - When Young Girls Get The Blues
DYEAR=2003
DGENRE=R&B
TTITLE0=When Young Girls Get The Blues
TTITLE1=I Spy For The FBI
TTITLE2=Untie Me
TTITLE3=People Get Ready
TTITLE4=Little Boy Blue
TTITLE5=Warm And Tender Love
TTITLE6=Cool Jerk
TTITLE7=Little Piece Of Leather
TTITLE8=Ain't Love Good, Ain't Love Proud
TTITLE9=Everythings Gonna Be Alright
EXTD=Including Tracks featured on BBC TV and Radio "'s Paul Jones Blues Show
EXTD=\nSponsored By The National Blues Club Of The UK.\nAll Band Members (
EXTD=Except M Ford ) under 18
EXTT0=
EXTT1=
EXTT2=
EXTT3=
EXTT4=
EXTT5=
EXTT6=
EXTT7=
EXTT8=
EXTT9=
PLAYORDER=
